<?xml version="1.0" encoding="UTF-8" standalone="no"?>
<svg
   xmlns:dc="http://purl.org/dc/elements/1.1/"
   xmlns:cc="http://creativecommons.org/ns#"
   xmlns:rdf="http://www.w3.org/1999/02/22-rdf-syntax-ns#"
   xmlns:svg="http://www.w3.org/2000/svg"
   xmlns="http://www.w3.org/2000/svg"
   id="svg8"
   version="1.1"
   viewBox="0 0 555.49762 655.7305"
   height="655.73047"
   width="555.49762">
  <defs
     id="defs2" />
  <metadata
     id="metadata5">
    <rdf:RDF>
      <cc:Work
         rdf:about="">
        <dc:format>image/svg+xml</dc:format>
        <dc:type
           rdf:resource="http://purl.org/dc/dcmitype/StillImage" />
        <dc:title></dc:title>
      </cc:Work>
    </rdf:RDF>
  </metadata>
  <g
     transform="translate(-88.547324,-261.26241)"
     id="layer1">
    <path
       id="path5656"
       d="m 478.66211,471.5625 c -5.7803,-0.008 -10.60971,0.98706 -12.44727,3.20117 -4.64877,5.60144 -16.91279,74.09805 -19.41015,108.41211 -1.19833,16.46513 4.40798,22.9251 22.55273,25.98828 5.75589,0.9717 17.43448,-1.50867 20.2207,-4.29492 2.64588,-2.64587 3.74298,-1.01135 3.76368,5.61133 0.0137,4.38987 -0.3547,5.20804 -3.60742,8 -9.61934,8.25673 -9.32249,7.85394 -9.54688,12.94726 -0.21071,4.78276 -0.24557,4.83018 -3.14648,4.25 -1.61351,-0.3227 -4.81866,-0.58593 -7.12305,-0.58593 -3.77256,0 -4.35058,-0.33622 -5.79688,-3.36914 -2.32279,-4.87094 -9.85383,-10.69961 -14.65625,-11.34375 -3.9347,-0.52776 -3.97287,-0.50022 -5.07422,3.58984 -1.29874,4.82319 -1.60311,4.94085 -4.21289,1.62305 -3.72297,-4.73299 -9.82031,-2.22023 -9.82031,4.04687 0,2.0462 -2.37117,1.80579 -4.41015,-0.44726 -3.5785,-3.9542 -6.69008,-3.20268 -10.30469,2.48828 -1.1625,1.83029 -1.30597,1.79424 -3.33399,-0.83789 -3.4145,-4.4316 -10.95117,-2.77712 -10.95117,2.40429 0,2.70004 -1.78261,2.2585 -4.6543,-1.15429 -1.47964,-1.75846 -3.49059,-3 -4.86132,-3 -2.4113,0 -6.48438,4.16724 -6.48438,6.63476 0,0.75083 -0.45,1.36524 -1,1.36524 -0.55,0 -1,-0.675 -1,-1.5 0,-1.71167 -3.47471,-5.5 -5.04492,-5.5 -0.575,0 -2.17644,1.12957 -3.55859,2.51172 -2.24335,2.24335 -2.6767,2.35065 -4.02735,1 -2.40717,-2.40717 -3.78633,-1.83364 -8.21289,3.41601 -2.86506,3.39779 -4.15625,5.86646 -4.15625,7.94336 0,2.82992 -0.25838,3.03151 -4.25,3.32031 l -4.25,0.3086 0.24805,8 c 0.19444,6.26087 0.62922,8.28363 2,9.30664 1.41315,1.05463 9.96943,1.17033 44.2832,0.60156 38.3705,-0.63601 42.68717,-0.54721 44.14063,0.90625 5.61069,5.61068 12.03057,53.21114 14.32031,106.18555 2.92764,67.73277 2.88788,102.49005 -0.13086,116.33008 -1.81795,8.33474 -1.49341,9.09385 4.33789,10.16601 2.09047,0.38435 6.27578,0.60731 9.30078,0.49609 3.025,-0.11123 8.07845,-0.26745 11.23047,-0.34765 7.1855,-0.18275 7.37076,-0.71957 5.40625,-15.64453 -0.92114,-6.99822 -1.09944,-11.3638 -0.49219,-12 1.04503,-1.09484 106.28687,-2.01469 113.51758,-0.99219 l 4.16406,0.58789 0.64844,5.20117 c 0.35735,2.86099 1.3406,9.1196 2.18359,13.90625 l 1.53126,8.70313 4.53906,0.67968 c 6.29087,0.94337 26.1124,-0.16386 29.86523,-1.66796 l 3.09375,-1.24024 -1.43554,-6.58984 c -0.78959,-3.62425 -2.05773,-9.28789 -2.81836,-12.58789 -9.1593,-39.73804 -13.99836,-72.3482 -20.32813,-137 -1.76548,-18.03246 -2.84217,-66.42103 -1.55273,-69.78125 0.47327,-1.23332 1.80258,-1.71875 4.69336,-1.71875 h 4.03125 l -0.52735,-5.82227 c -0.52829,-5.8261 -3.32056,-12.74748 -6.06054,-15.02148 -0.92296,-0.76597 -8.53644,-1.57738 -20.76954,-2.21289 -10.62166,-0.55179 -19.45938,-1.14885 -19.63867,-1.32813 -0.17928,-0.17929 2.68744,-2.07863 6.36914,-4.2207 14.60137,-8.49531 20.98547,-18.06569 22.71875,-34.05274 2.19071,-20.20627 -4.16074,-35.5976 -17.12695,-41.5039 -4.54502,-2.07033 -4.67087,-2.67917 -2.03711,-9.8086 1.15649,-3.13054 -0.60605,-4.56303 -6.75,-5.48437 -5.42111,-0.81295 -5.53346,-1.58961 -1.95508,-13.54492 1.375,-4.59385 2.48435,-9.51216 2.46485,-10.92774 -0.11229,-8.15652 -8.49884,-13.02303 -40.94141,-23.76367 -24.35215,-8.06217 -29.02344,-10.04118 -29.02344,-12.29297 0,-2.08033 -4.26961,-8.57887 -7.31836,-11.13867 -5.46817,-4.5912 -17.74312,-7.39216 -27.37695,-7.40625 z m 109.12109,96.7832 c 0.38249,0.004 0.8322,0.0865 1.36719,0.21875 5.47099,1.35195 11.08772,8.68872 15.2793,19.95703 1.91168,5.13922 2.12465,7.15738 1.59961,15.1504 -1.26228,19.21639 -7.69147,27.86979 -28.46875,38.3164 -4.48734,2.25619 -8.50693,4.0415 -8.93164,3.9668 -0.42471,-0.0747 -3.75274,-0.57051 -7.39649,-1.10156 l -6.625,-0.96485 -0.46484,-7.24805 c -0.55476,-8.64431 -1.95207,-10.90819 -9.96289,-16.13476 l -5.67969,-3.70508 -0.65039,-7.60547 c -0.35804,-4.18273 -0.88874,-8.44911 -1.17969,-9.48242 -0.48528,-1.72347 -0.0873,-1.82633 4.82813,-1.24219 6.78454,0.80627 7.47274,0.2822 8.07617,-6.15234 0.27193,-2.89959 0.69299,-5.47033 0.93555,-5.71289 0.24256,-0.24256 3.46581,0.061 7.16406,0.67383 8.91719,1.47762 11.13025,0.47477 13.02148,-5.89844 1.41228,-4.75924 1.44587,-4.78834 5.29102,-4.42578 8.68438,0.81884 8.85373,0.78599 9.15039,-1.86328 0.59455,-5.30901 0.98905,-6.76508 2.64648,-6.7461 z m -116.49023,69.7461 c 6.9901,0 10.06445,1.3666 10.06445,4.47461 0,2.36592 -0.29802,2.51543 -4.75,2.375 -9.22346,-0.29094 -10.25,-0.68262 -10.25,-3.91602 0,-2.84848 0.14382,-2.93359 4.93555,-2.93359 z m -16.21875,34.6582 153.79492,2.01953 13.13281,185.86719 -152.28125,4.54687 z"
       style="fill:#000000" />
    <path
       id="path5654"
       d="m 497.11133,665.28125 c -25.25314,-0.0709 -49.20882,0.35475 -50.52149,1.16602 -0.8103,0.50079 -0.69681,2.00439 0.41211,5.41796 5.99183,18.4445 10.07483,58.90986 11.87891,117.72657 0.35427,11.55 1.00873,28.91789 1.45312,38.5957 0.75337,16.40665 -0.0474,48.98506 -1.52734,62.1543 l -0.64648,5.75 h 12.11718 c 12.03948,0 12.11441,-0.0144 11.64454,-2.25 -2.93985,-13.98719 -3.48003,-24.06828 -1.35938,-25.37891 1.91557,-1.18389 54.66642,-1.686 92.33203,-0.87891 l 34.46289,0.73829 0.0195,6.13476 c 0.0292,8.89542 1.6455,18.72753 3.35938,20.44141 1.38939,1.38938 12.29385,3.22159 15.62109,2.625 0.825,-0.14792 4.0875,-0.56225 7.25,-0.92188 3.1625,-0.35963 5.75,-0.77405 5.75,-0.91992 0,-0.14588 -1.58132,-6.52568 -3.51367,-14.17773 -12.73412,-50.42673 -20.19921,-114.24499 -22.15625,-189.41211 -0.32219,-12.375 -0.64173,-22.56421 -0.70898,-22.64063 -0.27282,-0.31003 -45.04666,-2.42777 -73.6211,-3.48242 -11.4754,-0.42354 -27.09421,-0.64494 -42.24609,-0.6875 z m -35.72461,11.25586 140.66406,5.05078 8.08203,172.98828 -131.32031,1.00977 z"
       style="fill:#b6b6b6;fill-opacity:1" />
    <path
       id="path5736"
       d="m 224.11719,458.39453 c -5.57332,-0.14048 -11.63596,1.04547 -16.39258,3.72656 -18.25104,10.28731 -20.10224,10.91949 -25.875,8.83203 -3.27523,-1.18432 -15.62215,1.92088 -17.0918,4.29883 -0.34168,0.55284 -1.48137,-0.40907 -2.5332,-2.13867 -2.66001,-4.37403 -7.31963,-3.98766 -10.58789,0.87891 -1.25622,1.87056 -4.53241,4.88304 -7.28125,6.69336 l -4.99805,3.29101 v -3.375 c 0,-2.62319 -0.50127,-3.53438 -2.25,-4.08594 -1.2375,-0.3903 -4.11882,-2.35134 -6.40234,-4.35742 -7.88425,-6.92632 -21.56578,-12.07553 -26.79883,-10.08593 -1.40138,0.53281 -2.54883,1.20128 -2.54883,1.48437 0,0.2831 4.06886,2.55752 9.04102,5.05469 9.76069,4.90211 10.51728,6.48047 3.11133,6.48047 -9.61289,0 -19.03301,7.98035 -10.40235,8.8125 4.38248,0.42255 4.18878,0.91582 -2.76758,7.03906 -6.030511,5.30829 -9.982418,11.28859 -9.982418,15.10742 0,2.35913 2.729316,2.62968 9.882808,0.98047 5.74809,-1.32519 6.01209,-0.80453 1.98633,3.90625 -4.809488,5.62788 -11.520922,19.58594 -12.923826,26.88086 -2.269736,11.80234 0.624317,23.08353 8.021485,31.27344 11.252641,12.45857 13.867301,21.00433 10.099611,33 -2.57044,8.18319 -2.56884,10.09203 0.006,13.36523 1.8843,2.3955 2.70461,2.63477 9.03125,2.63477 5.7604,0 7.049,0.30137 7.48437,1.75 2.8137,9.36212 6.09456,15.77368 8.22461,16.07617 2.29703,0.3262 2.30122,0.30072 1.60742,-8.25 -0.49906,-6.15064 -0.37429,-8.57617 0.44141,-8.57617 0.62564,0 1.13867,0.63907 1.13867,1.42187 0,0.78281 1.17612,2.82134 2.61328,4.5293 3.05455,3.63013 5.38672,2.73213 5.38672,-2.07422 0,-3.51167 0.79576,-3.58704 3.85547,-0.36133 1.29523,1.36549 3.14532,2.48438 4.11133,2.48438 1.34216,0 1.64099,0.5998 1.26953,2.54297 -1.27203,6.65417 4.64976,21.88563 18.25586,46.95703 2.68634,4.95 6.33562,11.67802 8.10937,14.95312 5.45043,10.06375 7.89336,12.54688 12.35157,12.54688 3.57062,0 4.02853,0.33069 5.95703,4.31445 0.67582,1.39606 1.75407,2.46392 2.10083,4.09965 0.37165,1.75316 -0.0125,4.09291 -0.0129,6.15035 -0.001,6.54728 1.30158,18.01957 3.65625,32.20703 l 1.53906,9.27149 -3.41016,3.77343 c -4.39491,4.86465 -6.56192,12.14459 -4.94531,16.61524 2.88836,7.98762 0.6075,14.32331 -7.58789,21.07031 -1.7875,1.47159 -3.25,3.50248 -3.25,4.51367 0,2.30282 4.77237,6.1642 6.90625,5.58789 0.87608,-0.23661 3.22027,-0.703 5.20899,-1.03711 l 3.61523,-0.60742 -0.11523,3.76953 c -0.15021,4.88826 3.1728,5.58256 8.71679,1.82031 3.41627,-2.31834 3.94538,-2.41351 5.98047,-1.08007 1.2279,0.80455 3.17223,1.21676 4.32227,0.91601 2.89432,-0.75688 3.89782,-19.6673 2.19531,-41.38476 -1.74708,-22.28606 -0.78026,-40 2.18359,-40 0.4799,0 3.40076,4.46344 6.49024,9.91992 l 5.61719,9.92187 -2.23633,4.32813 c -2.6669,5.16376 -3.14854,15.42818 -0.97852,20.83008 4.46138,11.10581 17.38082,17.6915 39.45899,20.11328 l 11.48046,1.25781 1.04297,8.06445 c 1.39475,10.7869 2.92966,31.71147 3.67383,50.06446 0.33452,8.25 0.79213,15.18324 1.01563,15.4082 1.25573,1.26388 -20.51143,11.81327 -25.57813,12.39648 -8.98435,1.03415 -12.77819,8.42169 -8.53711,16.62305 3.8142,7.37583 15.04303,4.14697 17.0293,-4.89648 0.69271,-3.15389 15.93117,-14.03125 19.65625,-14.03125 3.30805,0 2.59827,10.07024 -1.00195,14.21484 -6.93331,7.98168 -7.07983,15.58587 -0.3711,19.22656 3.6011,1.95422 8.69591,1.94473 10.66016,-0.0195 3.48964,-3.48964 3.84975,-5.55914 3.15234,-18.11133 -0.37624,-6.77171 -0.43901,-12.31054 -0.13867,-12.31054 0.30034,0 2.79755,1.61715 5.54883,3.59375 4.25128,3.05424 5.00195,4.08504 5.00195,6.86523 0,5.98813 3.15245,8.54102 10.54688,8.54102 6.10163,0 6.47449,0.14064 7.95312,3 1.3196,2.55183 2.13108,3 5.4336,3 10.90695,0 20.98952,-19.61966 31.46484,-61.22266 2.31568,-9.1968 4.53449,-17.04426 4.92969,-17.43945 0.39519,-0.39516 2.93132,-0.60062 5.63672,-0.45703 4.75706,0.25249 5.02274,0.11836 8.06835,-4.06055 1.73208,-2.37659 4.05863,-6.08866 5.16993,-8.25 2.02002,-3.92871 8.6852,-14.37392 22.37695,-35.07031 13.29832,-20.10167 20.41992,-39.74087 20.41992,-56.3086 0,-6.76662 -4.6e-4,-6.7669 -4.75,-11.32617 -15.6643,-15.03678 -37.23196,-18.08589 -100.65234,-14.22656 -8.112,0.49365 -10.72088,0.36841 -10.19141,-0.48828 0.39138,-0.63327 2.24853,-1.15039 4.12695,-1.15039 2.84882,0 3.26833,-0.35576 4.4375,-3.16071 1.10166,-2.643 -0.31859,-5.12863 0.39509,-6.43829 0.75654,-1.38831 2.48901,2.5216 3.24554,1.52868 2.06514,-2.71043 1.93429,-12.77011 -0.61914,-20.54296 -5.5584,-16.92019 -26.96555,-34.93656 -44.59375,-37.53125 -12.46736,-1.83507 -22.72348,-9.18092 -34.10938,-24.43165 -4.29024,-5.74648 -12.95667,-13.81947 -18.53906,-17.26953 -4.50697,-2.78542 -4.4706,-1.81938 -0.3457,-9.26171 2.36528,-4.26757 4.57315,-6.79825 7.23437,-8.29102 8.31949,-4.66669 6.12791,-11.19299 -7.13867,-21.26367 -5.55833,-4.21933 -7.56494,-6.50044 -9.74609,-11.07617 -3.49547,-7.33296 -3.783,-14.18105 -0.62891,-15.00586 9.80262,-2.56345 12.34094,-6.73585 9.2793,-15.25 -1.63892,-4.55767 -1.64155,-4.99694 -0.0488,-7.42774 1.90586,-2.9087 1.02845,-5.57908 -4.07227,-12.39062 l -2.48046,-3.3125 3.96289,-3.6875 c 6.58798,-6.13101 9.59687,-14.48308 7.25586,-20.13477 -1.73864,-4.19745 -8.09603,-6.56938 -15.26172,-6.75 z m -49.7461,123.69727 h 3.01368 l -1.6543,3.75 c -0.90927,2.0625 -2.18754,5.7118 -2.83985,8.11132 -0.65232,2.39952 -1.93857,4.78548 -2.85937,5.30079 -2.09042,1.16986 -2.12868,0.1708 -0.17383,-4.50782 0.825,-1.9745 1.5,-5.63038 1.5,-8.12304 0,-4.37351 0.10571,-4.53125 3.01367,-4.53125 z m 51.5918,118.01172 c 2.34692,0.0342 30.39453,42.16324 30.39453,45.65429 0,0.90895 -1.40416,1.33399 -4.41797,1.33399 -2.43002,0 -5.06001,0.24612 -5.84375,0.54687 -2.17913,0.8362 -12.16568,-14.92504 -17.77148,-28.04687 -2.20746,-5.16715 -3.94561,-19.51138 -2.36133,-19.48828 z m 140.36523,54.98828 -5.42382,7.75 c -11.64547,16.63943 -13.2019,18.60207 -17.82422,22.47656 -6.00132,5.03039 -6.79282,6.5297 -5.79297,10.96289 l 0.80273,3.55859 -5.32031,0.54883 c -12.9368,1.3352 -15.95816,6.53136 -15.81836,27.20313 0.0521,7.7 0.83957,20.16497 1.75,27.70117 0.91042,7.5362 1.65625,16.1987 1.65625,19.25 0,3.0513 -0.3375,5.52439 -0.75,5.49609 -0.4125,-0.0283 -3.05263,-1.94083 -5.86719,-4.25 -2.81455,-2.30918 -5.82984,-4.64726 -6.70117,-5.19726 -1.3263,-0.83719 -1.83651,-5.80707 -3.13281,-30.52149 -0.85161,-16.23646 -1.54883,-32.02488 -1.54883,-35.08593 v -5.56641 l 8.25,-1.79297 c 15.8997,-3.45597 24.92841,-6.79089 28.02344,-10.34961 4.72978,-5.4384 8.12825,-20.69506 5.64453,-25.33594 -0.59454,-1.11095 -0.82138,-2.27822 -0.50586,-2.59375 0.8361,-0.8361 16.61209,-4.20257 19.82422,-4.23047 z"
       style="fill:#000000" />
    <path
       id="path5734"
       d="m 299.37985,913.07893 c 4.56723,-2.44431 2.77351,-15.73157 -2.05646,-15.23355 -6.09466,0.62842 -9.25746,10.0332 -4.77769,14.20674 2.44399,2.27693 4.04798,2.51792 6.83415,1.02681 z"
       style="fill:#b7b7b7;fill-opacity:1" />
    <path
       id="path5732"
       d="m 344.90587,902.60809 c 5.72209,-6.06718 5.73318,-12.66562 0.0253,-15.05052 -4.69748,-1.96274 -5.72604,-3.68182 -7.16954,-11.9828 -1.37818,-7.92533 -3.90364,-59.08241 -3.21002,-65.02379 0.50481,-4.324 -1.42153,-4.38176 -4.58849,-0.13759 -3.07091,4.11545 -2.94667,24.10332 0.37717,60.67769 2.04436,22.4954 5.53271,35 9.76378,35 0.8343,0 2.99511,-1.56735 4.8018,-3.48299 z"
       style="fill:#cdaf6f;fill-opacity:1" />
    <path
       id="path5730"
       d="m 264.11348,901.02618 c 2.03522,-0.70949 3.44763,-2.12797 4.23181,-4.25 1.76183,-4.76764 2.50201,-5.98544 4.07868,-6.71057 3.07299,-1.41331 5.1068,-2.67883 13.41447,-8.34699 4.73391,-3.22985 8.41839,-6.06118 8.18773,-6.29185 -0.86322,-0.86322 -9.41531,3.17081 -16.41424,7.74261 -6.27585,4.09948 -7.75701,4.66403 -11.07056,4.21958 -6.65349,-0.89241 -11.27573,6.58045 -7.56922,12.2373 0.88826,1.35565 1.7211,2.46482 1.85078,2.46482 0.12967,0 1.61042,-0.47921 3.29055,-1.0649 z"
       style="fill:#b8b8b8;fill-opacity:1" />
    <path
       id="path5728"
       d="m 327.35714,901.42639 c 0,-1.29947 -8.33081,-15.88473 -10.75836,-18.83531 -4.03999,-4.91043 -9.10981,-7.48881 -14.74164,-7.4972 l -5,-0.007 0.27304,7.75233 c 0.32721,9.29038 0.9521,12.54024 2.25628,11.73421 0.53387,-0.32995 0.97068,-4.17336 0.97068,-8.5409 0,-9.64102 0.26641,-9.72286 9.61332,-2.95312 9.65596,6.99358 9.38668,6.67862 9.38668,10.97899 0,3.00919 0.59556,4.35645 2.63486,5.96057 2.56248,2.01565 5.36514,2.75111 5.36514,1.40789 z"
       style="fill:#b8b8b8;fill-opacity:1" />
    <path
       id="path5726"
       d="m 329.95681,893.34108 c -4.98402,-35.21973 -6.78615,-72.88599 -4.05484,-84.75 l 0.69065,-3 -2.32793,2.23797 c -6.44798,6.1988 -4.42941,57.86831 3.26255,83.51203 2.36618,7.88841 3.38107,8.72387 2.42957,2 z"
       style="fill:#cdae6e;fill-opacity:1" />
    <path
       id="path5724"
       d="m 356.76205,882.09108 c 4.25826,-11.29733 4.87291,-20.44208 1.71393,-25.5 -1.785,-2.858 -18.38721,-11.56497 -19.64791,-10.30427 -0.26522,0.26523 -0.0286,5.16719 0.52581,10.89325 2.15335,22.23972 3.66173,26.91102 8.68963,26.91102 2.40257,0 3.40464,1.3978 3.82676,5.338 0.46329,4.32443 0.53834,4.21184 4.89178,-7.338 z"
       style="fill:#efee9c;fill-opacity:1" />
    <path
       id="path5720"
       d="m 301.37325,864.84108 c 0.009,-3.4375 -0.52573,-15.58616 -1.18798,-26.99702 l -1.2041,-20.74701 -3.94219,-2.05479 -3.9422,-2.05478 0.56547,2.16234 c 0.39353,1.50485 0.053,2.29607 -1.11982,2.60215 -1.88673,0.49237 -1.88346,-0.33166 -0.1085,27.33911 0.58212,9.075 1.51527,18.6375 2.07367,21.25 1.00147,4.68546 1.06849,4.75 4.9324,4.75 h 3.91714 l 0.0161,-6.25 z"
       style="fill:#b7b7b7;fill-opacity:1" />
    <path
       id="path5718"
       d="m 366.71819,848.59108 c 0.87713,-3.85 1.86755,-9.25 2.20093,-12 0.33338,-2.75 0.82364,-5.7875 1.08947,-6.75 1.25744,-4.55285 -5.68683,0.43363 -8.70387,6.25 -2.10429,4.05673 -1.80396,17.04405 0.47455,20.5215 2.2512,3.43577 2.37415,3.2361 4.93892,-8.0215 z"
       style="fill:#eeed9b;fill-opacity:1" />
    <path
       id="path5716"
       d="m 355.35714,847.02601 c 0,-1.59356 -1.69748,-2.84935 -7.43446,-5.5 -7.95256,-3.67431 -9.56554,-4.06824 -9.56554,-2.33614 0,1.94908 5.93016,6.70875 10.27573,8.2475 5.76893,2.04278 6.72427,1.98433 6.72427,-0.41136 z"
       style="fill:#61c9ee;fill-opacity:1" />
    <path
       id="path5714"
       d="m 355.21131,839.67584 c -1.65171,-1.3536 -14.94246,-8.58476 -15.77864,-8.58476 -2.31141,0 -0.90674,3.0399 2.17447,4.70586 6.09711,3.29661 13.24932,5.95835 13.60417,5.06288 0.19479,-0.49156 0.19479,-1.02435 0,-1.18398 z"
       style="fill:#5fc8ef;fill-opacity:1" />
    <path
       id="path5712"
       d="m 358.37723,834.53824 c 0.53382,-1.40406 2.37961,-4.30617 4.10175,-6.44915 4.97795,-6.1944 2.04983,-9.53767 -3.93947,-4.49801 -7.36393,6.19634 -14.00571,-0.98628 -9.79017,-10.58738 0.51999,-1.18429 -0.46438,-2.20005 -3.87635,-4 -5.87924,-3.10154 -6.48569,-2.25157 -6.48382,9.08738 l 0.001,8.5 8.73329,5.14991 c 10.36032,6.10937 10.02573,6.0262 11.25337,2.79725 z"
       style="fill:#eeed9b;fill-opacity:1" />
    <path
       id="path5710"
       d="m 386.21803,825.84108 c 0.65006,-1.2375 2.29851,-3.78085 3.66323,-5.6519 l 2.48129,-3.4019 -5.69606,-2.31505 c -8.07876,-3.28345 -15.57958,-8.68797 -24.46991,-17.63115 -4.23731,-4.2625 -8.14793,-7.75 -8.69026,-7.75 -1.52081,0 -5.14918,6.4444 -5.14918,9.14553 0,5.88461 12.91293,18.65182 27,26.69529 6.53107,3.72913 9.25959,3.95754 10.86089,0.90918 z"
       style="fill:#4f9bfd;fill-opacity:1" />
    <path
       id="path5708"
       d="m 356.87955,821.47777 2.61331,-2.61332 -2.24217,-2.38668 c -2.71636,-2.89143 -4.48015,-3.02765 -5.85837,-0.45243 -1.37709,2.57312 -1.30943,5.39149 0.16482,6.86574 1.70749,1.70749 2.38024,1.52885 5.32241,-1.41331 z"
       style="fill:#415fb8;fill-opacity:1" />
    <path
       id="path5706"
       d="m 208.72846,810.06164 c 1.402,-1.66619 2.83826,-4.70369 3.19168,-6.75 1.19534,-6.92112 3.63259,-14.42543 4.40743,-13.57054 0.42371,0.46749 0.33482,4.57359 -0.19753,9.12467 -1.03309,8.83176 -0.69141,11.22531 1.60239,11.22531 3.20444,0 3.26434,-20.40987 0.13068,-44.52606 -1.30787,-10.06518 -1.21361,-12.34414 1.50856,-36.47394 0.58945,-5.225 1.33744,-14.02416 1.6622,-19.5537 l 0.59046,-10.0537 -10.84489,-1.12473 c -5.96468,-0.6186 -11.1998,-0.90538 -11.63359,-0.63729 -1.42016,0.87771 -1.14426,4.86584 0.92563,8.92316 0.57764,1.13227 2.37928,2.49714 2.09429,3.95447 -0.43207,2.20947 0.44814,6.33763 0.64879,12.26077 0.41193,12.16008 1.28384,18.50499 3.94811,28.73102 2.11211,8.10671 2.08189,8.2695 -1.83911,9.9078 -6.4363,2.68926 -8.4451,12.96444 -4.18924,21.42833 1.81794,3.61546 0.22261,7.25227 -6.32296,14.41416 -5.21359,5.7045 -6.20269,8.37177 -3.49045,9.41255 2.56134,0.98288 6.07375,-1.25852 10.1234,-6.46013 2.09706,-2.69357 4.84547,-6.2036 6.10758,-7.80006 l 2.29476,-2.90265 -0.52599,4.05875 c -0.28929,2.23231 -1.20882,5.4275 -2.04339,7.10043 -1.96917,3.9473 -3.15598,12.34082 -1.74495,12.34082 0.57587,0 2.19413,-1.36325 3.59614,-3.02944 z"
       style="fill:#efc89f;fill-opacity:1" />
    <path
       id="path5704"
       d="m 397.52072,807.84108 c 30.32695,-45.54225 39.84424,-68.04212 35.63388,-84.24222 -1.15604,-4.44808 -1.8682,-5.33301 -6.53367,-8.1188 -6.79872,-4.05957 -22.17665,-8.93908 -34.67748,-11.00338 -16.74691,-2.76546 -61.44051,-0.92926 -65.04512,2.67233 -0.57474,0.57427 -1.04119,5.27375 -1.04119,10.49 0,5.19732 -0.3026,9.45021 -0.67245,9.45087 -1.61446,0.003 -3.0471,-7.62412 -2.46973,-13.14816 0.33633,-3.21785 0.2209,-5.85064 -0.25652,-5.85064 -1.18259,0 -1.96898,3.23493 -2.74248,11.28154 -1.01502,10.55926 -2.87427,9.98592 -2.36496,-0.7293 0.24632,-5.18244 -1.03559,-4.13594 -8.26447,6.7468 -12.60898,18.98221 -15.33555,26.94723 -10.34408,30.21777 7.23319,4.73937 26.7098,4.02358 53.61469,-1.97039 6.325,-1.40911 15.46689,-2.77243 20.31531,-3.0296 l 8.8153,-0.46759 4.47624,-4.77461 4.47625,-4.77462 -2.11131,4.34691 c -1.86748,3.84488 -1.99246,7.25758 -0.16742,4.57127 0.89637,-1.31937 7.68083,-6.41818 8.54002,-6.41818 2.16467,0 -0.005,3.50713 -3.84439,6.21311 -6.89114,4.85732 -6.09406,5.95921 3.75,5.18405 6.98285,-0.54986 8.05015,-0.43826 6.94886,0.7266 -0.91712,0.97005 -4.1637,1.40369 -11,1.46925 -11.65114,0.11173 -13.0305,0.51478 -16.00912,4.67797 -1.27065,1.77596 -4.5634,6.37902 -7.31723,10.22902 -2.75383,3.85 -6.597,8.64035 -8.54038,10.64523 -2.60988,2.69247 -3.36334,4.18109 -2.88271,5.69541 0.97587,3.0747 10.86706,11.68459 17.87025,15.55535 11.94523,6.6023 17.1859,9.40633 17.76411,9.50469 0.32108,0.0546 2.15699,-2.26318 4.0798,-5.15068 z"
       style="fill:#4f9bfd;fill-opacity:1" />
    <path
       id="path5702"
       d="m 353.93771,784.39963 c 10.14516,-11.21546 15.20931,-17.511 19.2221,-23.8961 3.78674,-6.0254 3.84966,-6.41245 1.04249,-6.41245 -2.81093,0 -8.70093,6.28465 -11.76331,12.55151 -3.34416,6.84347 -10.11615,15.47676 -16.60129,21.1642 -5.84704,5.12783 -6.07801,5.6562 -4.35773,9.96919 l 1.12282,2.8151 1.68349,-3.69145 c 0.92592,-2.0303 5.26907,-7.6553 9.65143,-12.5 z"
       style="fill:#4f9bfd;fill-opacity:1" />
    <path
       id="path5700"
       d="m 319.54132,792.26273 c 12.97948,-3.47309 19.77384,-9.80046 21.39197,-19.92165 0.76752,-4.80079 0.26658,-5.06119 -4.33692,-2.25441 -9.44979,5.7616 -27.43309,11.37723 -32.01445,9.99713 l -2.72478,-0.82081 3,-0.10096 c 4.93161,-0.16597 18.13894,-4.69143 24.78449,-8.49236 11.82436,-6.76295 12.30566,-8.12932 2.78648,-7.91049 -8.89042,0.20438 -31.57148,5.09366 -37.4838,8.08026 -4.87759,2.4639 -13.51675,5.17459 -13.99997,4.39273 -1.19551,-1.93437 3.1354,-4.63558 12.1628,-7.58598 2.8875,-0.94371 5.25,-2.12968 5.25,-2.63548 0,-2.8109 -36.34142,1.91079 -40.67367,5.28456 -1.56117,1.21577 -8.26839,-0.64136 -15.49934,-4.29152 -6.61938,-3.34146 -6.8981,-3.16165 -5.79876,3.74101 1.47546,9.26426 6.24059,15.15991 15.5987,19.29944 12.4951,5.52718 51.91162,7.40504 67.55725,3.21853 z"
       style="fill:#ef6c01;fill-opacity:1" />
    <path
       id="path5698"
       d="m 260.53682,766.34108 c 7.88798,-3.19202 8.26739,-3.82972 2.82556,-4.74911 -3.56215,-0.60183 -7.19115,-2.90716 -3.85559,-2.44929 0.74269,0.10195 2.89129,0.13205 4.77466,0.0669 l 3.42432,-0.1185 -2.42432,-2.62888 c -6.90672,-7.48952 -21.40246,-7.03717 -26.28844,0.82034 -1.43589,2.30916 1.31217,5.22306 8.36413,8.86888 6.71546,3.47184 5.12545,3.44896 13.17968,0.18966 z"
       style="fill:#ef6c01;fill-opacity:1" />
    <path
       id="path5696"
       d="m 297.35714,760.22659 c 0,-2.13949 -4.25094,-3.20111 -6.61511,-1.65204 -1.34674,0.88242 -2.24292,1.93722 -1.99151,2.34402 0.5499,0.88974 8.60662,0.24198 8.60662,-0.69198 z"
       style="fill:#ef6c01;fill-opacity:1" />
    <path
       id="path5694"
       d="m 289.26114,753.4628 c 2.27977,-2.58995 5.68369,-8.60699 8.19121,-14.47945 2.35974,-5.52637 6.04076,-12.37542 8.18003,-15.22011 8.2573,-10.98011 9.97176,-16.6996 6.14979,-20.51594 -3.25042,-3.24563 -3.96006,-5.0502 -4.8558,-12.34808 -0.71058,-5.78938 -4.68242,-14.41128 -8.54914,-18.55814 -3.27087,-3.50785 -6.45996,-2.86276 -11.68669,2.36397 -3.4087,3.4087 -5.60644,4.74709 -8.41329,5.12357 -12.00924,1.61078 -14.33098,-5.8565 -4.61335,-14.83768 l 5.19324,-4.79968 0.34692,-8.41148 0.34693,-8.41147 -4.59889,-6.04714 c -2.52939,-3.32593 -6.91147,-7.98335 -9.73797,-10.34982 -2.82649,-2.36648 -8.8225,-9.28072 -13.32446,-15.36498 -8.91441,-12.04756 -15.1228,-18.04675 -19.7213,-19.05675 -1.62483,-0.35687 -3.10223,-0.49354 -3.28311,-0.3037 -0.18088,0.18984 1.23057,4.10338 3.13657,8.69676 1.90599,4.59338 3.26388,8.55316 3.01753,8.79951 -0.24635,0.24635 -3.66206,-4.92759 -7.59047,-11.49765 -10.43414,-17.45058 -18.59993,-24.08381 -29.70689,-24.1315 -3.6257,-0.0156 -5.8555,0.5604 -7.65773,1.97804 -1.39842,1.1 -3.63937,2 -4.97987,2 -10.99419,0 -12.86631,32.35306 -4.69351,81.11109 1.07044,6.3861 1.94625,11.84824 1.94625,12.13809 0,0.28985 4.1072,1.54185 9.12711,2.78223 7.6673,1.89452 10.66621,2.15316 18.75,1.61707 16.31987,-1.08228 23.73237,-2.64893 23.33644,-4.9322 -3.93452,-22.69009 -3.55509,-43.71628 0.78888,-43.71628 0.51264,0 1.05931,5.0625 1.21482,11.25 0.26602,10.58432 0.36728,11.07248 1.71127,8.25 2.45346,-5.15243 2.58091,0.55991 0.13583,6.08743 -2.46111,5.56375 -2.50714,6.82288 -0.58171,15.91294 2.91514,13.76258 1.38722,22.37315 -4.59735,25.90832 -3.84011,2.26841 -3.79062,2.4562 2.99553,11.36823 3.23446,4.24769 10.46224,15.37308 16.06175,24.72308 12.47522,20.83098 16.2446,25.0811 24.87578,28.04836 4.83541,1.66234 8.25731,0.30864 13.08565,-5.17664 z"
       style="fill:#c265fc;fill-opacity:1" />
    <path
       id="path5692"
       d="m 240.42301,748.56608 c -0.15073,-1.74694 -14.38067,-26.475 -15.23523,-26.475 -1.99328,0 0.61366,6.08101 7.66936,17.88969 5.28247,8.84093 7.83816,11.74098 7.56587,8.58531 z"
       style="fill:#b7b7b7;fill-opacity:1" />
    <path
       id="path5688"
       d="m 318.38189,699.52598 c 2.17748,-5.72719 -0.46016,-21.48757 -5.12713,-30.63559 l -2.00292,-3.92603 2.04939,1.0968 c 3.84048,2.05536 7.92138,13.03318 9.55558,25.70499 0.63875,4.95292 2.37687,7.1373 4.59057,5.76916 1.39267,-0.86072 1.08438,-8.5672 -0.64021,-16.00346 -2.24509,-9.68066 0.13581,-11.54149 2.31538,-3.44077 4.46013,16.57677 5.05426,4.59856 1.8246,-4.78861 -5.4099,-15.72414 -21.81215,-29.75543 -39.75489,-35.33984 -9.30406,-2.89575 -15.03458,-2.0588 -10.39511,1.51821 1.1882,0.91609 1.29376,2.91033 0.60366,11.40402 l -0.83637,10.29378 -5.10365,5.39636 c -5.57795,5.89786 -5.86135,6.61552 -3.53222,8.94465 2.8776,2.8776 5.95682,1.8162 12.84767,-4.42857 3.64142,-3.3 7.12118,-6 7.7328,-6 2.20165,0 7.29543,4.54908 10.36513,7.58704 3.06969,3.03796 5.31554,7.88706 7.0574,16.48452 2.43979,12.04225 6.10365,16.53555 8.45032,10.36334 z"
       style="fill:#efc89f;fill-opacity:1" />
    <path
       id="path5686"
       d="m 196.35714,697.5597 c 0,-0.84227 -0.7875,-1.77512 -1.75,-2.07301 -0.9625,-0.29789 -3.26821,-1.20305 -5.12381,-2.01147 -3.95928,-1.72494 -4.74268,-1.34415 -2.99431,1.45543 2.3443,3.75381 9.86812,5.75829 9.86812,2.62905 z"
       style="fill:#ef6c01;fill-opacity:1" />
    <path
       id="path5684"
       d="m 228.35714,693.50622 c 5.91945,-3.25471 6.5,-4.18882 6.5,-10.45866 0,-6.5941 -0.0639,-6.63892 -7,-4.91406 -8.47645,2.1079 -28.61011,2.0709 -36.08354,-0.0663 -3.80055,-1.08686 -7.2705,-1.97611 -7.711,-1.97611 -0.44049,0 -0.66692,2.81083 -0.50318,6.24628 l 0.29772,6.24628 6.08593,2.16525 c 13.95064,4.96335 32.04035,6.26181 38.41407,2.75733 z"
       style="fill:#c265fc;fill-opacity:1" />
    <path
       id="path5682"
       d="m 179.9691,676.34108 c -0.70219,-3.53058 -2.09145,-14.14107 -4.15709,-31.75 -0.90326,-7.7 -1.8022,-15.35 -1.99763,-17 -0.19544,-1.65 -0.67166,-8.5125 -1.05827,-15.25 -0.38661,-6.7375 -1.04453,-12.25 -1.46205,-12.25 -0.41752,0 -1.92413,1.38453 -3.34803,3.07673 -3.54887,4.2176 -3.58619,10.99135 -0.0889,16.13808 4.06284,5.979 3.01809,7.15309 -3.82198,4.29513 -6.38478,-2.66774 -8.50421,0.2021 -7.23252,9.79329 0.92659,6.98847 4.6387,15.50401 13.9263,31.94677 7.52461,13.32159 10.37734,16.71764 9.24016,11 z"
       style="fill:#ef6c01;fill-opacity:1" />
    <path
       id="path5680"
       d="m 130.63664,626.23687 c -0.65618,-7.23649 1.05112,-13.14579 3.79805,-13.14579 1.30026,0 1.95164,0.7282 2.01264,2.25 0.0908,2.26483 0.51858,1.05553 3.01763,-8.53017 0.54204,-2.0791 1.39732,-3.52567 1.90064,-3.2146 0.53249,0.3291 0.55525,1.5121 0.0544,2.82936 -0.47338,1.24508 -1.11161,5.39165 -1.41829,9.2146 -0.37764,4.70751 -0.29158,5.82122 0.26664,3.45081 0.45332,-1.925 1.54113,-5.075 2.41735,-7 l 1.59313,-3.5 0.0391,3.23422 c 0.0265,2.19106 1.0244,4.28757 3.09382,6.5 l 3.05468,3.26578 -0.61323,-3.1548 c -0.84295,-4.33667 0.76434,-4.91982 5.2183,-1.89328 6.05425,4.11397 7.67714,3.55751 6.89174,-2.36308 -0.52379,-3.94855 -0.0751,-6.64361 2.28914,-13.75 2.92506,-8.79208 4.69891,-19.33884 3.25258,-19.33884 -0.41684,0 -1.32341,3.36561 -2.0146,7.47912 -0.69119,4.11352 -1.72716,7.76987 -2.30214,8.12523 -0.64508,0.39869 -0.83473,-0.072 -0.49524,-1.22912 1.40713,-4.79613 1.90633,-11.64298 0.79899,-10.9586 -0.6242,0.38577 -1.1552,1.46235 -1.18,2.39239 -0.0248,0.93004 -0.70237,3.04098 -1.50568,4.69098 -1.58456,3.25467 -1.57965,2.62492 0.0409,-5.25 1.09002,-5.2969 -0.9108,-3.69626 -2.20851,1.76678 -0.65543,2.75923 -1.93411,6.02173 -2.8415,7.25 l -1.6498,2.23322 0.48895,-2.5 c 0.26892,-1.375 1.24712,-5.33197 2.17376,-8.79328 2.68053,-10.01262 1.18037,-9.5988 -1.92719,0.53162 -1.5517,5.0584 -3.15779,8.98912 -3.56909,8.73492 -0.41131,-0.2542 0.33017,-3.85682 1.64772,-8.00582 2.52373,-7.94729 3.04141,-12.46744 1.42786,-12.46744 -1.17082,0 -5.6707,14.63314 -6.53466,21.25 -0.34111,2.6125 -1.06301,4.75 -1.60424,4.75 -0.58738,0 -0.71889,-1.51158 -0.32626,-3.75 2.01665,-11.49689 3.70746,-18.05026 5.39507,-20.91054 1.61721,-2.74097 1.68816,-3.38473 0.48322,-4.38474 -1.1328,-0.94014 -1.59251,-0.6981 -2.32292,1.22303 -2.14796,5.64957 -5.07262,16.7165 -5.70089,21.57225 -0.37361,2.8875 -1.11354,5.25 -1.6443,5.25 -1.48097,0 0.09,-9.18341 3.32302,-19.42578 3.22659,-10.22189 3.85853,-15.99347 1.48236,-13.53851 -1.57339,1.62557 -6.14503,16.0959 -7.17618,22.71429 -0.36418,2.3375 -1.09039,4.25 -1.61379,4.25 -0.54136,0 -0.66923,-1.40119 -0.29659,-3.25 1.96126,-9.73056 3.98013,-16.85974 6.20565,-21.91385 1.83817,-4.17446 2.23446,-6.12764 1.507,-7.42753 -0.85755,-1.53235 -1.24488,-1.24853 -2.95299,2.16385 -2.05245,4.10027 -5.62839,16.87419 -6.76828,24.17753 -0.36483,2.3375 -1.04548,4.25 -1.51256,4.25 -1.91319,0 3.55695,-23.09502 7.24511,-30.58896 1.73688,-3.52917 2.2316,-5.75518 1.75816,-7.91104 l -0.65881,-3 -1.0878,2.5 c -4.20783,9.67059 -6.1916,15.95364 -7.76543,24.59484 -1.75529,9.63757 -3.48864,14.34521 -3.44456,9.35516 0.10229,-11.57937 11.27182,-43.05213 18.23888,-51.39231 2.84085,-3.40074 9.84534,-4.08855 15.1938,-1.49196 2.74431,1.33232 8.74262,8.13911 9.80651,11.12828 0.80343,2.25739 5.73917,-3.15328 5.73917,-6.2914 0,-4.75528 -4.9071,-8.46093 -15.7941,-11.92707 -5.33824,-1.69956 -11.38375,-4.18934 -13.43446,-5.53283 -2.05071,-1.34349 -3.91325,-2.44271 -4.13898,-2.44271 -0.55433,0 -7.0025,13.6415 -11.10815,23.5 -4.76713,11.44685 -6.68995,18.11537 -7.28066,25.25 -0.58712,7.09119 -2.24365,8.50346 -2.24365,1.91281 0,-7.48764 7.05768,-27.94956 15.23254,-44.16281 2.84284,-5.63824 4.38296,-11.5 3.02151,-11.5 -2.05536,0 -15.48655,29.96382 -16.59954,37.0321 -1.2696,8.06296 -3.16395,9.55028 -2.18803,1.7179 0.84548,-6.78556 1.41483,-8.28995 10.12434,-26.75142 6.50702,-13.79289 8.97941,-21.76168 7.27924,-23.46185 -0.29367,-0.29367 -4.49484,5.34282 -9.33594,12.52555 -11.96877,17.75802 -17.49772,31.3668 -17.52225,43.1287 -0.007,3.13004 -0.46187,5.9691 -1.01187,6.30902 -1.49364,0.92312 -1.21118,-8.98738 0.45602,-16 2.3798,-10.01001 7.25819,-20.43388 14.97605,-32 10.02221,-15.01946 11.15761,-17.33649 8.91674,-18.19639 -1.11693,-0.42861 -2.09459,-0.0181 -2.78497,1.16935 -0.58511,1.0064 -3.8888,5.24919 -7.34152,9.42843 -9.58306,11.5995 -13.41592,20.82277 -17.82338,42.88951 -0.25167,1.25999 -0.81682,2.06887 -1.2559,1.7975 -1.28249,-0.79262 2.52135,-17.84031 5.87347,-26.32318 1.69308,-4.2845 5.41949,-10.88036 8.28091,-14.65745 9.33973,-12.32852 11.70258,-15.80477 11.70258,-17.21696 0,-2.59486 -1.7485,-1.40584 -5.67512,3.85919 -9.99962,13.40807 -19.21996,31.8979 -20.81949,41.75 -0.90018,5.54456 -2.44711,8.71532 -2.43936,5 0.0196,-9.38007 8.15185,-28.20479 19.11744,-44.25328 1.03469,-1.51431 2.96777,-4.35435 4.29573,-6.31121 2.13739,-3.14962 5.5208,-12.50196 5.5208,-15.26047 0,-3.57522 -14.71396,-14.16067 -21.75,-15.64727 -4.43875,-0.93784 -4.19579,0.92959 0.40498,3.1128 4.80971,2.28236 11.99171,9.12908 10.77687,10.27377 -0.53581,0.50487 -3.55768,0.44344 -7.11017,-0.14455 -7.07534,-1.17105 -10.08445,-0.65865 -13.44523,2.28953 l -2.37645,2.08469 3.80767,-0.51849 c 8.72946,-1.1887 8.69905,1.37403 -0.0918,7.73112 -7.545749,5.45673 -12.21592,10.87794 -12.21592,14.18043 0,2.18631 0.0799,2.19834 6.165828,0.92832 5.762902,-1.2026 9.422302,-1.2106 10.609722,-0.0232 0.27771,0.27771 -1.0212,2.20433 -2.88648,4.28136 -9.599849,10.68972 -14.824307,23.56175 -15.085826,37.1685 -0.188246,9.79434 1.281329,13.37276 11.668276,28.41234 7.82507,11.33017 9.2216,17.97593 5.79665,27.5849 -2.48362,6.96796 -2.48855,7.04857 -0.62658,10.2367 3.18212,5.44855 4.03277,4.64025 5.08759,-4.83428 l 0.9788,-8.79173 0.14601,9.25 c 0.10696,6.77628 0.48856,9.25 1.42689,9.25 0.897,0 1.3669,-2.17283 1.56791,-7.25 0.15786,-3.9875 0.76001,-7.7 1.33812,-8.25 0.73291,-0.69728 0.8481,1.1672 0.3805,6.1591 -0.483,5.15638 -0.33112,7.3689 0.54295,7.9091 1.49208,0.92218 4.88964,-3.02386 4.88964,-5.67896 0,-1.03907 0.45715,-1.88922 1.01588,-1.88922 0.55874,0 0.98359,1.2375 0.94411,2.75 -0.22407,8.58431 1.81462,21.25 3.42043,21.25 0.23646,0 0.19105,-2.63439 -0.10092,-5.85421 z"
       style="fill:#876158;fill-opacity:1" />
    <path
       id="path5676"
       d="m 233.48476,581.78421 c 2.59142,-5.00503 1.83357,-6.91997 -4.62762,-11.69313 -4.93555,-3.64611 -7.5087,-7.32463 -6.10531,-8.72802 0.31752,-0.31752 1.528,0.63131 2.68996,2.1085 4.57511,5.81632 15.85017,9.47834 17.82453,5.78922 1.94648,-3.63703 -0.97837,-7.31107 -10.93531,-13.73635 -12.60247,-8.13246 -15.18778,-19.58469 -7.93313,-35.14165 5.61265,-12.03584 7.3191,-17.68686 6.62763,-21.94789 -0.62733,-3.86579 -3.14847,-7.34381 -5.32336,-7.34381 -2.62853,0 -1.27754,-3.19174 3.51739,-8.30986 5.74519,-6.13243 7.1376,-8.55842 7.1376,-12.43584 0,-10.01497 -15.92143,-10.96777 -31.65234,-1.89418 -11.8277,6.82221 -21.07421,9.50939 -22.84766,6.63988 -1.15491,-1.86868 -6.98045,-1.00767 -13.25,1.95833 -5.8925,2.78762 -6.25,3.15463 -6.25,6.4163 0,1.90276 0.9,5.55917 2,8.12537 2.7519,6.41993 2.57168,8.10506 -1,9.35016 -1.65,0.57519 -3,1.74421 -3,2.59782 0,0.85361 -0.5625,1.54434 -1.25,1.53495 -1.75148,-0.0239 -5.36386,-9.20093 -6.78345,-17.23293 -0.65616,-3.7125 -1.70456,-6.74832 -2.32978,-6.74626 -1.13791,0.004 -6.75333,3.17514 -8.96262,5.0618 -0.64578,0.55147 -2.07415,1.66266 -3.17415,2.4693 -1.87614,1.3758 -1.89162,1.53159 -0.25,2.51559 0.9625,0.57692 1.75,1.55632 1.75,2.17643 0,0.62012 1.42026,2.31317 3.15613,3.76234 2.74777,2.29394 3.26225,3.51631 3.97628,9.44734 1.37387,11.41196 3.76441,13.42569 22.15047,18.65904 8.83879,2.51584 13.13008,6.25828 14.29474,12.46647 0.54116,2.88463 1.05047,3.50696 2.54932,3.115 2.25224,-0.58897 2.44388,0.60432 0.37306,2.32295 -0.825,0.68469 -1.5,1.71823 -1.5,2.29676 0,0.57853 1.12323,-0.003 2.49606,-1.29306 1.37283,-1.2897 2.78761,-2.05336 3.14397,-1.69701 0.35635,0.35636 -1.21688,2.45763 -3.49606,4.6695 -2.27918,2.21187 -4.14397,4.48066 -4.14397,5.04175 0,1.2274 -5.20453,0.12512 -6.1382,-1.30003 -0.351,-0.53578 -1.13192,-0.669 -1.73537,-0.29605 -0.63283,0.39111 -2.47887,-1.34452 -4.36181,-4.10091 -5.80878,-8.50336 -8.09204,-10.32095 -12.96519,-10.32095 -5.46787,0 -8.44106,2.04256 -9.72104,6.67827 -2.85125,10.32636 4.88868,26.6335 15.16291,31.94651 5.36345,2.77355 20.09824,2.07806 25.02317,-1.1811 6.64184,-4.39536 12.95729,-4.38198 20.23553,0.0429 3.3,2.00625 7.125,4.68643 8.5,5.95596 1.375,1.26953 4.72592,3.9805 7.44649,6.02439 5.56681,4.18217 5.56059,4.18459 9.68113,-3.77376 z"
       style="fill:#efc89f;fill-opacity:1" />
    <path
       id="path5674"
       d="m 164.56971,569.58447 c -4.25189,-1.84736 -6.5927,-7.18554 -5.97406,-13.62377 0.50014,-5.2051 -1.04865,-5.7765 -3.15093,-1.16248 -1.81316,3.97945 -3.79973,1.42635 -2.09413,-2.69133 1.6387,-3.95617 4.60282,-6.01581 8.65763,-6.01581 5.21728,0 6.63822,2.18277 7.70279,11.83259 0.62168,5.63528 0.58563,5.61408 7.62139,4.48101 8.12314,-1.3082 8.37249,2.66685 0.26895,4.28756 -7.49249,1.4985 -11.24421,-2.03952 -11.24421,-10.60372 0,-1.5139 -0.65646,-3.29736 -1.4588,-3.96325 -1.4985,-1.24364 -1.52058,-1.19765 -3.03588,6.32313 -0.62215,3.0879 1.19489,6.36686 4.93751,8.91004 5.02427,3.41408 3.65339,4.78236 -2.23026,2.22603 z"
       style="fill:#000000" />
    <path
       id="path5672"
       d="m 218.35714,558.09108 c 0,-0.55 0.64844,-1 1.44098,-1 0.79254,0 1.7191,0.45 2.05902,1 0.33992,0.55 -0.30852,1 -1.44098,1 -1.13246,0 -2.05902,-0.45 -2.05902,-1 z"
       style="fill:#000000" />
    <path
       id="path5670"
       d="m 188.3972,553.54975 c 1.88781,-1.94773 3.58582,-3.08102 3.77335,-2.51843 0.3669,1.10068 -4.69551,5.97592 -6.25958,6.02816 -0.52039,0.0174 0.59841,-1.562 2.48623,-3.50973 z"
       style="fill:#000000" />
    <path
       id="path5668"
       d="m 182.35714,554.28725 c 0,-1.3781 6.51849,-7.19683 8.04761,-7.1837 0.80325,0.007 -0.46654,1.79466 -2.84107,4 -4.40416,4.09035 -5.20654,4.58099 -5.20654,3.1837 z"
       style="fill:#000000" />
    <path
       id="path5666"
       d="m 215.79827,553.55928 c 2.20359,-1.66671 3.55887,-1.88576 3.55887,-0.57519 0,0.96183 -2.432,2.12691 -4.33179,2.07519 -0.64251,-0.0175 -0.2947,-0.6925 0.77292,-1.5 z"
       style="fill:#000000" />
    <path
       id="path5664"
       d="m 203.10714,524.51269 c -1.12786,-1.13529 -0.81632,-14.53686 0.62355,-26.82319 1.15422,-9.84898 1.54119,-11.12833 4.00778,-13.25 2.77002,-2.38267 6.05554,-3.0686 7.04325,-1.47045 0.29844,0.48288 -1.25,2.06427 -3.44098,3.51419 -4.26833,2.82464 -5.10248,5.69541 -2.6353,9.06949 1.45651,1.9919 3.6517,1.34848 3.6517,-1.07033 0,-3.34296 3.03387,-7.39132 5.5391,-7.39132 2.48017,0 2.48304,0.0112 0.94338,3.69617 -2.94371,7.0453 -6.16823,10.31668 -9.51009,9.64831 -2.43489,-0.48698 -2.98756,-0.25542 -3.05629,1.28052 -0.41014,9.16615 -2.40904,23.55865 -3.1661,22.79661 z"
       style="fill:#000000" />
    <path
       id="path5662"
       d="m 182.69855,505.84108 c 1.8774,-14.69974 1.91081,-15.7164 0.53112,-16.1659 -0.75489,-0.24594 -3.96003,-1.16555 -7.12253,-2.04357 -5.7724,-1.60262 -7.70332,-3.54993 -3.5,-3.52971 1.2375,0.006 4.45902,0.68096 7.15893,1.5 6.24803,1.89541 6.59107,1.87519 6.59107,-0.38838 0,-1.03265 0.63452,-2.40416 1.41005,-3.04779 4.11354,-3.41393 2.2178,17.27813 -2.368,25.84678 -1.90497,3.55947 -3.29031,2.4456 -2.70064,-2.17143 z"
       style="fill:#000000" />
    <path
       id="path5660"
       d="m 232.26904,519.95853 c 1.14845,-1.06995 2.0881,-2.40741 2.0881,-2.97215 0,-1.64285 -1.98549,-4.8953 -2.98839,-4.8953 -0.85762,0 -5.01161,8.3165 -5.01161,10.0335 0,1.27169 3.66213,-0.0701 5.9119,-2.16605 z"
       style="fill:#ffffff" />
    <path
       id="path5658"
       d="m 162.35714,496.99015 c 0,-0.5668 -0.52872,-2.01347 -1.17493,-3.21481 -0.64621,-1.20134 -1.43371,-6.23426 -1.75,-11.18426 -0.56101,-8.77998 -0.63619,-9 -3.07507,-9 -3.32346,0 -3.73625,4.09008 -1.45075,14.37463 2.53523,11.40832 3.0302,12.42081 5.4413,11.13043 1.1052,-0.59149 2.00945,-1.53918 2.00945,-2.10599 z"
       style="fill:#876158;fill-opacity:1" />
    <path
       id="path5652"
       d="m 459.85742,674.82812 0.30078,5.88086 c 0.33097,6.44645 5.10381,53.70279 8.21875,81.38282 3.12794,27.79553 4.84014,46.22393 5.99414,64.5 0.59039,9.35 1.31636,20.25281 1.61329,24.23047 l 0.54101,7.23242 23.66602,0.28711 c 13.0165,0.15779 29.78088,0.39051 37.2539,0.51758 7.47302,0.12705 26.54604,-0.0664 42.38477,-0.43165 36.37707,-0.83888 33.88877,0.48503 32.58203,-17.33593 -0.50412,-6.875 -1.15359,-17 -1.44141,-22.5 -4.1544,-79.38903 -6.61328,-128.93836 -6.61328,-133.22266 0,-7.28812 1.51546,-6.93754 -38,-8.78125 -13.8552,-0.64645 -61.22659,-1.57433 -85.5,-1.67383 z m 26.75,3.25977 c 12.7875,-0.002 30.225,0.43498 38.75,0.9707 8.525,0.53572 26.525,1.46057 40,2.05469 30.02759,1.32394 33.67142,1.72902 34.56641,3.84766 0.37853,0.89606 1.04438,9.50586 1.48047,19.13086 0.43608,9.625 1.26407,27.625 1.83789,40 0.57383,12.375 1.28581,29.25 1.58203,37.5 0.98177,27.34313 1.54812,38.83732 2.72656,55.23632 0.64176,8.92995 0.97305,16.42797 0.73633,16.66211 -0.98129,0.97063 -127.19427,1.07116 -127.51367,0.10157 -0.38085,-1.15616 -2.03955,-19.86225 -2.92578,-33 -0.33391,-4.95 -1.23787,-14.85 -2.00782,-22 -0.76994,-7.15 -1.64929,-15.475 -1.95507,-18.5 -0.30577,-3.025 -1.42127,-12.925 -2.47852,-22 -1.05725,-9.075 -2.64063,-23.25 -3.51953,-31.5 -1.73598,-16.29509 -1.98259,-18.53629 -3.5,-32 -0.55788,-4.95 -1.01649,-10.6875 -1.02149,-12.75 l -0.008,-3.75 z"
       style="fill:#000000" />
    <path
       id="path5648"
       d="m 620.4505,659.34108 -1.70147,-5.75 -6.94595,-1.26827 c -16.70344,-3.0499 -149.58496,-4.7315 -222.69594,-2.81819 l -34.75,0.90941 2e-5,6.08852 3e-5,6.08853 110.24997,0.14364 c 60.63749,0.079 115.42498,0.57531 121.74998,1.10293 6.325,0.52761 16.96634,1.02547 23.64742,1.10636 l 12.14742,0.14707 z"
       style="fill:#2c7a2a;fill-opacity:1" />
    <path
       id="path5646"
       d="m 411.35714,644.53489 c 6.325,-0.3959 20.275,-0.99521 31,-1.33181 l 19.5,-0.612 -0.12015,-4 c -0.29308,-9.75708 -3.07308,-11.14316 -15.87985,-7.91755 -7.29669,1.8378 -25.02806,4.44643 -57.37188,8.44052 -26.44528,3.26569 -26.56417,3.29296 -25.23031,5.78772 0.94544,1.76829 15.80008,1.65499 48.10219,-0.36688 z"
       style="fill:#fefdde;fill-opacity:1" />
    <path
       id="path5640"
       d="m 494.85714,643.16149 c 2.84478,-0.6571 2.72583,-0.75446 -2.29922,-1.88168 -6.95114,-1.55929 -7.20078,-1.53117 -7.20078,0.81127 0,2.15354 3.23353,2.51788 9.5,1.07041 z"
       style="fill:#fefdde;fill-opacity:1" />
    <path
       id="path5638"
       d="m 549.35714,638.55896 c 0,-10.29792 -4.50204,-16.10295 -14.8165,-19.10472 -8.79184,-2.55865 -37.75816,-1.37596 -42.99572,1.7555 -6.78344,4.05572 -8.18778,5.85607 -8.18778,10.49664 0,5.28202 -0.35387,5.07683 15.45486,8.96169 12.19098,2.99583 14.27284,3.21285 31.79514,3.31437 l 18.75,0.10864 z"
       style="fill:#fefdde;fill-opacity:1" />
    <path
       id="path5636"
       d="m 369.12797,637.27858 c 0.21771,-0.65313 -0.31666,-1.1875 -1.1875,-1.1875 -0.87083,0 -1.58333,0.7125 -1.58333,1.58333 0,1.76593 2.15276,1.45839 2.77083,-0.39583 z"
       style="fill:#e8e7b7;fill-opacity:1" />
    <path
       id="path5634"
       d="m 379.85714,637.09108 c 0.33992,-0.55 0.35207,-1.43035 0.027,-1.95633 -0.82258,-1.33094 -3.527,-0.13222 -3.527,1.56332 0,1.5989 2.57595,1.88815 3.5,0.39301 z"
       style="fill:#e8e7b7;fill-opacity:1" />
    <path
       id="path5632"
       d="m 395.35714,635.10003 c 0,-1.92891 -2.98874,-3.26318 -4.5,-2.00895 -2.53447,2.10342 -1.79089,3.69631 1.5,3.21331 1.65,-0.24217 3,-0.78413 3,-1.20436 z"
       style="fill:#e8e7b7;fill-opacity:1" />
    <path
       id="path5630"
       d="m 409.15447,634.2375 c 1.04867,-0.66522 1.02505,-1.04894 -0.12325,-2.00194 -1.70573,-1.41564 -4.67408,-0.48684 -4.67408,1.46251 0,1.52867 2.75034,1.83793 4.79733,0.53943 z"
       style="fill:#e8e7b7;fill-opacity:1" />
    <path
       id="path5628"
       d="m 423.35714,631.09108 c 0,-0.55 -0.64844,-1 -1.44098,-1 -0.79254,0 -1.7191,0.45 -2.05902,1 -0.33992,0.55 0.30852,1 1.44098,1 1.13246,0 2.05902,-0.45 2.05902,-1 z"
       style="fill:#e8e7b7;fill-opacity:1" />
    <path
       id="path5626"
       d="m 438.0647,627.71376 c -0.57676,-1.73028 -3.14055,-1.32842 -3.50209,0.54893 -0.24246,1.25898 0.19622,1.53611 1.77719,1.12267 1.15452,-0.30191 1.93072,-1.05413 1.7249,-1.6716 z"
       style="fill:#e8e7b7;fill-opacity:1" />
    <path
       id="path5624"
       d="m 452.34183,625.84108 c -0.0343,-2.79823 -1.7351,-4.20203 -3.40847,-2.81325 -2.39394,1.98679 -1.92186,4.06325 0.92378,4.06325 1.375,0 2.49311,-0.5625 2.48469,-1.25 z"
       style="fill:#e8e7b7;fill-opacity:1" />
    <path
       id="path5622"
       d="m 533.51346,613.21343 c 0.95131,-0.90207 -0.26239,-15.12235 -1.29069,-15.12235 -0.4761,0 -0.86563,2.34 -0.86563,5.2 0,4.10165 -0.25859,4.94141 -1.22424,3.97576 -0.67334,-0.67334 -1.23584,-3.24817 -1.25,-5.72185 -0.0395,-6.90212 -2.86936,-5.65424 -3.52576,1.55476 -0.4548,4.99489 -0.61301,5.29386 -1.75,3.30707 -0.6875,-1.20134 -1.25,-3.15134 -1.25,-4.33333 0,-4.26802 -2.50285,-1.28244 -2.80479,3.34576 -0.38727,5.93604 -1.86919,6.02872 -2.74748,0.17183 -0.42664,-2.84506 -1.18471,-4.5 -2.06127,-4.5 -0.97654,0 -1.38646,1.33046 -1.38646,4.5 0,4.46311 -1.22632,5.95857 -2.39301,2.91821 -0.33385,-0.86998 -0.60699,-2.89498 -0.60699,-4.5 0,-1.9273 -0.50934,-2.91821 -1.5,-2.91821 -1.10816,0 -1.5,1.16011 -1.5,4.44098 0,6.25379 -1.78466,6.66305 -2.58976,0.59389 -0.60437,-4.55595 -2.18924,-6.90068 -2.5583,-3.78487 -0.0814,0.6875 -0.23981,1.925 -0.35194,2.75 -0.11213,0.825 -0.27051,2.7375 -0.35194,4.25 -0.23029,4.27733 -2.14806,3.23436 -2.14806,-1.16821 0,-4.42927 -0.78918,-7.08179 -2.10699,-7.08179 -1.02686,0 -1.18557,6.28722 -0.27378,10.84614 l 0.61923,3.09615 17.63077,-0.5988 c 9.69692,-0.32933 17.92611,-0.87885 18.28709,-1.22114 z"
       style="fill:#e8e7b7;fill-opacity:1" />
    <path
       id="path5620"
       d="m 481.56165,604.05106 c 7.46193,-2.07243 7.85937,-3.15803 15.36146,-41.95998 1.43558,-7.425 4.16005,-20.925 6.05438,-30 4.10676,-19.67386 6.37965,-34.21199 6.37965,-40.80633 0,-5.74293 -2.59381,-8.77682 -10.5,-12.28147 -5.94502,-2.63531 -26.92756,-3.45717 -29.69554,-1.16315 -2.10029,1.74067 -7.90998,25.94401 -10.14177,42.25095 -0.88341,6.45482 -6.69975,46.46481 -7.19592,49.5 -1.66488,10.18457 -1.71645,23.46999 -0.10068,25.93598 4.29386,6.55325 20.3841,11.14978 29.83842,8.524 z"
       style="fill:#fefdde;fill-opacity:1" />
    <path
       id="path5618"
       d="m 519.20311,596.23268 c 1.54219,-0.43324 2.78559,-1.93779 3.62904,-4.39124 3.8403,-11.17069 8.35331,-12.42918 31.45761,-8.77219 11.88151,1.88062 13.43187,0.37006 15.15426,-14.76528 0.51869,-4.55791 2.73633,-15.25489 4.9281,-23.77108 4.98999,-19.3888 5.04731,-21.52978 0.66598,-24.87158 -5.89656,-4.49753 -27.44631,-13.25799 -30.10423,-12.23805 -0.72046,0.27647 -2.11175,3.46483 -3.09175,7.08525 -0.98,3.62041 -2.16503,6.58257 -2.6334,6.58257 -0.46837,0 -0.85158,-0.14235 -0.85158,-0.31634 0,-0.79922 2.16356,-12.3629 2.58379,-13.8097 0.30301,-1.04321 -0.27429,-1.82127 -1.61063,-2.17073 -2.47156,-0.64633 -3.3035,1.08917 -4.9958,10.4216 -0.63016,3.47516 -1.76485,7.45623 -2.52152,8.84682 l -1.37576,2.52835 -0.0399,-3 c -0.0219,-1.65 0.63506,-6.52709 1.45996,-10.83797 1.86777,-9.7608 1.86567,-10.66203 -0.0249,-10.66203 -2.02209,0 -2.75642,2.23936 -5.49264,16.75 -1.27047,6.7375 -2.68629,12.25 -3.14628,12.25 -1.27383,0 -0.99886,-6.69644 0.59541,-14.5 0.78656,-3.85 1.73877,-9.25 2.11604,-12 1.08354,-7.89828 -1.40335,-4.19359 -3.09771,4.61463 -0.78136,4.06196 -1.86084,9.41037 -2.39884,11.88537 -0.538,2.475 -1.27071,6.6375 -1.62825,9.25 -0.35754,2.6125 -1.09464,4.75 -1.63802,4.75 -1.17235,0 -0.33467,-9.54678 2.23751,-25.5 1.58817,-9.85019 1.36644,-14.22224 -0.62052,-12.23528 -0.34726,0.34726 -1.68642,8.19226 -2.97591,17.43333 -2.71778,19.47688 -4.35455,27.30195 -5.71074,27.30195 -0.56427,0 -0.67792,-1.35019 -0.27358,-3.25 3.87623,-18.21233 6.60566,-42.75 4.75527,-42.75 -0.55844,0 -1.55997,3.2625 -2.22562,7.25 -0.66565,3.9875 -3.65774,19.4 -6.64908,34.25 -4.98287,24.73656 -6.31445,31.43089 -9.44833,47.5 -2.31713,11.88123 -2.43768,10.81408 1.27298,11.26892 5.43656,0.66639 19.16032,0.58587 21.69904,-0.12732 z"
       style="fill:#e8e7b7;fill-opacity:1" />
    <path
       id="path5616"
       d="m 546.95315,590.431 c 0.99709,-5.31494 -1.89206,-7.05025 -10.59601,-6.36427 -3.00374,0.23673 -8,4.70281 -8,7.15108 0,1.86334 2.38877,2.37198 12.70469,2.70517 l 5.20468,0.1681 z"
       style="fill:#e8e7b7;fill-opacity:1" />
    <path
       id="path5614"
       d="m 583.65969,568.22667 c 0.89675,-3.22543 1.92237,-7.68996 2.27916,-9.92119 0.64452,-4.03063 0.6238,-4.06369 -3.2165,-5.13001 -5.92789,-1.64597 -6.04133,-1.55766 -7.75671,6.03828 -2.88942,12.79477 -2.3863,14.45344 4.47755,14.76133 2.32921,0.10448 2.74798,-0.46644 4.2165,-5.74841 z"
       style="fill:#e8e7b7;fill-opacity:1" />
    <path
       id="path5612"
       d="m 260.06987,492.78485 c -0.27569,-0.71843 1.28481,-3.98093 3.46777,-7.25 9.73621,-14.58039 13.33103,-27.66604 11.17821,-40.69031 -0.7323,-4.43037 -2.66689,-5.16337 -16.35871,-6.19822 -43.74014,-3.30594 -76.60884,-27.17542 -83.38563,-60.55524 -8.92717,-43.97169 12.73639,-94.44332 47.25519,-110.09489 10.56035,-4.7883 15.9245,-5.96165 30.13044,-6.59073 44.39762,-1.96607 73.02331,16.30385 88.81623,56.68562 7.21681,18.45306 8.96959,46.63147 4.1987,67.5 -0.62869,2.75 -1.36784,6.12164 -1.64254,7.49254 -0.5794,2.89146 -6.52003,12.62147 -13.53333,22.16593 -8.50205,11.5705 -21.77842,20.78222 -33.59,23.30618 -3.51888,0.75193 -3.50057,0.71178 -5.26014,11.53535 -1.1636,7.15767 -1.20279,7.26927 -6.31952,18 -2.65483,5.56766 -5.84263,9.88549 -12.37282,16.75884 -8.41429,8.85647 -11.48677,10.79387 -12.58385,7.93493 z"
       style="fill:#000000" />
    <path
       id="path5610"
       d="m 272.34387,480.60873 c 10.64168,-14.15837 15.21555,-25.81963 16.27745,-41.49989 0.22435,-3.31282 0.47907,-3.53616 5.23582,-4.5906 15.60426,-3.45906 33.25962,-18.51747 41.77461,-35.62993 6.9787,-14.025 8.11527,-19.41916 8.17475,-38.79723 0.0546,-17.77617 -1.02738,-24.69492 -6.35043,-40.60945 -9.19483,-27.49015 -31.48137,-47.98292 -58.09893,-53.42276 -11.51091,-2.35249 -17.32513,-2.43056 -32.69878,-0.43908 -25.45183,3.297 -38.80323,11.76307 -52.78585,33.47129 -15.83645,24.58634 -20.94622,51.34124 -15.08776,79 4.13551,19.52441 19.39805,37.54294 39.57239,46.71804 12.55934,5.71188 32.88785,10.01879 49.25358,10.43514 9.67027,0.24602 10.76733,1.23825 11.50305,10.40376 1.2225,15.22977 -2.61843,27.91089 -11.94003,39.4209 -2.59355,3.20244 -3.45838,5.02216 -2.38678,5.02216 0.2364,0 3.63701,-4.26706 7.55691,-9.48235 z"
       style="fill:#fcfd7b;fill-opacity:1" />
    <path
       id="path5608"
       d="m 230.57539,399.43622 c -2.15924,-4.1764 -6.77282,-32.02247 -5.80878,-35.05989 0.31216,-0.98355 2.93524,-3.68114 5.82905,-5.99465 9.83101,-7.85956 24.84197,-24.04574 22.96709,-24.76519 -0.92052,-0.35324 -7.85573,-0.32845 -15.41158,0.0551 l -13.73789,0.69735 -1.17009,-2.88893 c -1.93632,-4.78075 -2.44961,-31.67633 -0.6333,-33.18373 1.84279,-1.52938 29.67569,-2.3527 51.39718,-1.52039 17.67567,0.6773 17.35007,0.4486 17.35007,12.18611 0,3.72724 0.69525,11.42664 1.54501,17.10977 1.73105,11.57717 1.2991,15.52315 -1.87629,17.14068 -7.66533,3.90467 -21.94299,15.13149 -20.59582,16.19491 0.23491,0.18542 4.63321,-0.11848 9.77402,-0.67535 7.54001,-0.81675 10.14978,-0.73492 13.5,0.4233 l 4.15308,1.43577 0.67521,12 c 0.37136,6.6 0.82136,15.15 1,19 l 0.32479,7 -6.07886,-0.33198 c -6.85865,-0.37456 -54.21884,1.59822 -59.08504,2.46118 -2.43069,0.43105 -3.38497,0.13348 -4.11785,-1.28406 z"
       style="fill:#000000" />
    <path
       id="path5595"
       d="m 236.35714,394.08031 c 0,-1.65592 -0.69585,-7.33507 -1.54633,-12.62033 -1.40823,-8.75132 -1.38413,-11.63269 0.085,-10.16356 0.29627,0.29628 1.2373,5.20878 2.09116,10.91667 2.2798,15.23987 2.22722,15.05436 4.15589,14.66323 1.84368,-0.3739 1.86297,-0.67645 0.78333,-12.28524 -0.45661,-4.90976 -0.34742,-6.5169 0.3657,-5.38216 0.55919,0.88982 1.28107,4.26482 1.60419,7.5 1.01806,10.19318 1.14888,10.49462 4.23347,9.75491 1.50017,-0.35976 2.81774,-0.71846 2.92795,-0.79713 0.1102,-0.0787 -0.49614,-3.19651 -1.34743,-6.92856 -0.85128,-3.73205 -1.25448,-7.07885 -0.89599,-7.43734 1.18927,-1.18927 2.33288,2.00343 3.02176,8.43606 0.62841,5.86802 0.86568,6.35422 3.10088,6.35422 2.78782,0 2.7689,0.12917 1.33476,-9.11406 -1.13619,-7.32295 -0.36208,-12.75597 1.12362,-7.88594 0.41947,1.375 0.81367,4.75 0.876,7.5 0.18348,8.09447 0.77356,9.29444 4.42052,8.98938 2.65989,-0.22249 3.13051,-0.64211 2.9464,-2.62708 -1.28263,-13.82881 -1.45469,-19.8623 -0.56642,-19.8623 0.55578,0 1.32369,3.9375 1.70649,8.75 1.04439,13.13031 1.09682,13.25 5.80404,13.25 3.86314,0 3.98469,-0.0995 3.35946,-2.75 -1.41512,-5.99902 -1.86858,-16.25 -0.71882,-16.25 0.71366,0 1.13644,2.13255 1.13995,5.75 0.009,9.42498 1.48744,13.25 5.12088,13.25 2.76683,0 2.98715,-0.24088 2.5153,-2.75 -1.322,-7.02991 -1.72388,-14.25 -0.79317,-14.25 1.09334,0 1.70565,2.58863 2.66106,11.25 0.57879,5.24708 0.84663,5.75 3.06231,5.75 2.85452,0 2.99527,-1.19096 1.25615,-10.62948 -1.08277,-5.8764 -0.76113,-8.63687 0.82189,-7.05385 0.67181,0.67181 0.87613,2.79042 1.175,12.18333 0.13187,4.14444 0.5447,5.5 1.675,5.5 1.71529,0 1.93501,-5.77482 0.84562,-22.22536 l -0.64403,-9.72537 -15.51857,-0.27463 c -10.85827,-0.19217 -15.63683,-0.63042 -15.91237,-1.45938 -0.41072,-1.2356 8.45551,-8.60273 19.63515,-16.31526 7.74068,-5.34009 8.00152,-6.12117 6.98079,-20.90438 -0.89304,-12.93383 -2.75228,-23.07134 -4.24982,-23.17213 -0.62522,-0.0421 -2.03677,-0.30576 -3.13677,-0.58594 -5.66087,-1.44192 -46.14971,-1.51212 -51,-0.0884 l -5,1.46763 0.35379,13.39162 c 0.19458,7.36539 0.68129,13.74333 1.08157,14.1732 1.38385,1.48612 20.66808,2.05665 27.05356,0.80039 10.25974,-2.01848 10.59308,-0.38314 1.78732,8.76865 -11.09775,11.53384 -18.91172,19.30891 -23.03832,22.92363 -3.07401,2.69269 -3.73467,3.936 -3.7196,7 0.0283,5.74778 2.81292,24.0419 3.99607,26.25263 1.55272,2.90128 2.98561,2.40328 2.98561,-1.03765 z"
       style="fill:#60c8ef;fill-opacity:1" />
  </g>
</svg>
